<svg id="Capa_1" data-name="Capa 1" xmlns="http://www.w3.org/2000/svg" viewBox="0 0 220 180"><defs><style>.cls-1,.cls-2{fill:none;stroke:#000;stroke-linecap:round;stroke-linejoin:round;}.cls-1{stroke-width:2.83px;}.cls-2{stroke-width:2.51px;}</style></defs><title>Composer</title><rect class="cls-1" x="13.59" y="20.31" width="192.82" height="122.36" rx="4.18"/><line class="cls-1" x1="102.37" y1="142.67" x2="102.37" y2="159.69"/><line class="cls-1" x1="117.63" y1="142.67" x2="117.63" y2="159.69"/><line class="cls-1" x1="134.45" y1="159.69" x2="85.55" y2="159.69"/><line class="cls-1" x1="13.59" y1="129.5" x2="206.41" y2="129.5"/><line class="cls-2" x1="38.24" y1="68.73" x2="38.24" y2="77.19"/><line class="cls-2" x1="93.82" y1="68.73" x2="93.82" y2="77.19"/><line class="cls-2" x1="44.17" y1="63.38" x2="44.17" y2="82.54"/><line class="cls-2" x1="88.68" y1="63.38" x2="88.68" y2="82.54"/><line class="cls-2" x1="55.32" y1="63.38" x2="55.32" y2="82.54"/><line class="cls-2" x1="77.84" y1="63.38" x2="77.84" y2="82.54"/><line class="cls-2" x1="49.74" y1="55.8" x2="49.74" y2="90.12"/><line class="cls-2" x1="83.27" y1="55.8" x2="83.27" y2="90.12"/><line class="cls-2" x1="61.04" y1="55.8" x2="61.04" y2="90.12"/><line class="cls-2" x1="72.12" y1="55.8" x2="72.12" y2="90.12"/><line class="cls-2" x1="66.68" y1="47.41" x2="66.68" y2="97.83"/><rect class="cls-2" x="123.71" y="53.59" width="50.81" height="38.06"/><line class="cls-2" x1="135.64" y1="61.44" x2="135.64" y2="84.87"/><line class="cls-2" x1="132.23" y1="79.15" x2="139.06" y2="79.15"/><line class="cls-2" x1="149.11" y1="61.44" x2="149.11" y2="84.87"/><line class="cls-2" x1="145.7" y1="72.62" x2="152.53" y2="72.62"/><line class="cls-2" x1="162.58" y1="61.44" x2="162.58" y2="84.87"/><line class="cls-2" x1="159.16" y1="77.19" x2="166" y2="77.19"/></svg>
