<svg xmlns="http://www.w3.org/2000/svg" width="130" height="34" viewBox="0 0 130 34">
    <g fill="black" fill-rule="evenodd">
        <path d="M19.62 13.675c2.643.993 5.194.477 6.518-.893.71-.736 1.162-1.8 1.162-2.932 0-2.43-1.963-4.221-4.136-4.221-1.933 0-4.064 1.025-5.2 4.221-.105.297-.227.64-.36 1.022L14.337 9.64l.26-.744c1.124-3.216 3.139-6.891 8.57-6.891V0c-5.857 0-8.8 3.546-10.503 8.422l-.182.52L4.23 5.836l-.648 1.837 8.264 3.09c-1.112 3.174-2.445 6.97-3.373 9.61l-.793-.297c-2.643-.994-5.194-.478-6.519.892C.451 21.704 0 22.768 0 23.9c0 2.43 1.962 4.221 4.135 4.221 1.934 0 4.065-1.025 5.2-4.221l.362-1.022 3.264 1.231-.26.744c-1.123 3.216-3.138 6.891-8.569 6.891v2.006c5.857 0 8.799-3.546 10.503-8.422l.182-.52c4.092 1.541 8.253 3.105 8.253 3.105l.648-1.836-8.265-3.09c1.112-3.174 2.445-6.97 3.373-9.61l.794.298m.272-3.326c.515-1.455 1.662-2.75 3.272-2.75 1.366 0 2.187 1.108 2.187 2.251 0 1.406-1.583 3.38-5.139 2.01a127.13 127.13 0 0 0-.752-.286l.432-1.225M7.407 23.4c-.514 1.455-1.661 2.75-3.272 2.75-1.365 0-2.186-1.108-2.186-2.251 0-1.406 1.583-3.381 5.138-2.01l.752.286c-.199.565-.348.99-.432 1.225m6.19-1.109l-3.263-1.22c1.02-2.899 2.375-6.77 3.37-9.614l3.262 1.221c-1.02 2.898-2.375 6.769-3.37 9.613M117 9.45v2.846h4.9V25.65h3.2V12.296h4.9V9.45h-13M117 22.804h-8.39V9.45h-3.31v16.2H117v-2.846M98.8 22.804h-8.519v-3.911h7.885v-2.76H90.28v-3.816h8.424V9.45H87.1v16.2h11.7v-2.846M73.428 12.296H81.9V9.45H70.2v16.2h3.228v-6.661h8v-2.814h-8v-3.88M57.845 23.923c-2.926 0-5.22-2.41-5.22-5.654 0-3.254 2.294-5.72 5.22-5.72 2.925 0 5.22 2.466 5.22 5.72 0 3.244-2.295 5.654-5.22 5.654m0-14.473c-4.719 0-8.445 3.91-8.445 8.82 0 4.887 3.726 8.73 8.445 8.73 4.729 0 8.455-3.843 8.455-8.73 0-4.91-3.726-8.82-8.455-8.82M46.8 22.804h-8.39V9.45H35.1v16.2h11.7v-2.846"/>
    </g>
</svg>
