<svg id="Capa_1" data-name="Capa 1" xmlns="http://www.w3.org/2000/svg" viewBox="0 0 220 180"><defs><style>.cls-1,.cls-2{fill:none;stroke:#000;stroke-linejoin:round;stroke-width:2.38px;}.cls-1{stroke-linecap:round;}</style></defs><title>SDK</title><polyline class="cls-1" points="175.37 66.77 110 97.8 44.63 66.77"/><polygon class="cls-1" points="94.33 122.47 30.43 90.09 44.63 66.77 110 97.8 94.33 122.47"/><polygon class="cls-1" points="125.67 122.47 189.57 90.09 175.37 66.77 110 97.8 125.67 122.47"/><polygon class="cls-2" points="158.93 74.57 110 97.8 61.45 74.75 61.45 18.74 158.93 18.74 158.93 74.57"/><path d="M94.37,40.51l-4.07.85a4.24,4.24,0,0,0-4.39-3.63c-1.85,0-3.55.9-3.55,2.92,0,1.2.62,2,2.32,2.46l5.12,1.47c3,.87,4.89,2.66,4.89,6,0,4.24-3.4,6.7-8.23,6.7-4.45,0-8.34-2.08-8.9-6.56l4.28-.85c.52,2.67,2.4,3.87,5,3.87s3.87-1.14,3.87-3c0-1.37-.73-2.13-2.64-2.63L83.65,47c-2.4-.65-5.56-2.05-5.56-6.15s3.07-6.62,7.79-6.62C90.41,34.18,93.52,36.56,94.37,40.51Z"/><path d="M108.54,34.62c7.11,0,11.86,4.45,11.86,11.13s-4.75,11.12-11.86,11.12H99.47V34.62Zm.26,18.65c4.54,0,7.58-3,7.58-7.52s-3-7.53-7.58-7.53h-5.35V53.27Z"/><path d="M128.32,47.12v9.75h-4V34.62h4V44.81L138,34.62h5L132.45,45.75l10.86,11.12h-5.44Z"/><polyline class="cls-1" points="61.45 27.7 28.96 42.09 44.63 66.77 61.51 58.77"/><polyline class="cls-1" points="158.93 27.87 191.04 42.09 175.37 66.77 158.93 58.98"/><polyline class="cls-1" points="110 97.8 110 161.26 44.63 130.23 44.63 97.8"/><polyline class="cls-1" points="110 97.8 110 161.26 175.37 130.23 175.37 97.28"/></svg>
